<svg width="14" height="12" viewBox="0 0 14 12" fill="none" xmlns="http://www.w3.org/2000/svg">
<path d="M6.99992 9.66667C7.83325 9.66667 8.54159 9.375 9.12492 8.79167C9.70825 8.20833 9.99992 7.5 9.99992 6.66667C9.99992 5.83333 9.70825 5.125 9.12492 4.54167C8.54159 3.95833 7.83325 3.66667 6.99992 3.66667C6.16659 3.66667 5.45825 3.95833 4.87492 4.54167C4.29159 5.125 3.99992 5.83333 3.99992 6.66667C3.99992 7.5 4.29159 8.20833 4.87492 8.79167C5.45825 9.375 6.16659 9.66667 6.99992 9.66667ZM6.99992 8.33333C6.53325 8.33333 6.13881 8.17222 5.81659 7.85C5.49436 7.52778 5.33325 7.13333 5.33325 6.66667C5.33325 6.2 5.49436 5.80556 5.81659 5.48333C6.13881 5.16111 6.53325 5 6.99992 5C7.46659 5 7.86103 5.16111 8.18325 5.48333C8.50548 5.80556 8.66659 6.2 8.66659 6.66667C8.66659 7.13333 8.50548 7.52778 8.18325 7.85C7.86103 8.17222 7.46659 8.33333 6.99992 8.33333ZM1.66659 12C1.29992 12 0.98603 11.8694 0.724919 11.6083C0.463808 11.3472 0.333252 11.0333 0.333252 10.6667V2.66667C0.333252 2.3 0.463808 1.98611 0.724919 1.725C0.98603 1.46389 1.29992 1.33333 1.66659 1.33333H3.76659L4.99992 0H8.99992L10.2333 1.33333H12.3333C12.6999 1.33333 13.0138 1.46389 13.2749 1.725C13.536 1.98611 13.6666 2.3 13.6666 2.66667V10.6667C13.6666 11.0333 13.536 11.3472 13.2749 11.6083C13.0138 11.8694 12.6999 12 12.3333 12H1.66659ZM1.66659 10.6667H12.3333V2.66667H9.63325L8.41659 1.33333H5.58325L4.36659 2.66667H1.66659V10.6667Z" fill="#F9F9F9"/>
</svg>
