<svg width="25" height="24" viewBox="0 0 25 24" fill="none" xmlns="http://www.w3.org/2000/svg">
<path d="M22.9417 14.475L20.6917 12.225C20.3917 11.925 19.9417 11.925 19.6417 12.225L12.6667 19.2V22.5H15.9667L22.9417 15.525C23.2417 15.225 23.2417 14.775 22.9417 14.475ZM15.3667 21H14.1667V19.8L17.9167 16.05L19.1167 17.25L15.3667 21ZM20.1667 16.2L18.9667 15L20.1667 13.8L21.3667 15L20.1667 16.2ZM8.16675 17.25H9.66675V18.75H8.16675V17.25ZM11.1667 13.5H14.1667V15H11.1667V13.5ZM8.16675 13.5H9.66675V15H8.16675V13.5ZM11.1667 9.75H17.1667V11.25H11.1667V9.75ZM8.16675 9.75H9.66675V11.25H8.16675V9.75Z" fill="#02369C"/>
<path d="M5.91675 21V5.25H8.16675V7.5H17.1667V5.25H19.4167V9.75H20.9167V5.25C20.9167 4.425 20.2417 3.75 19.4167 3.75H17.1667V3C17.1667 2.175 16.4917 1.5 15.6667 1.5H9.66675C8.84175 1.5 8.16675 2.175 8.16675 3V3.75H5.91675C5.09175 3.75 4.41675 4.425 4.41675 5.25V21C4.41675 21.825 5.09175 22.5 5.91675 22.5H9.66675V21H5.91675ZM9.66675 3H15.6667V6H9.66675V3Z" fill="#02369C"/>
</svg>
